<?xml version="1.0" encoding="UTF-8" standalone="no"?>
<!-- Created with Inkscape (http://www.inkscape.org/) -->

<svg
   xmlns:dc="http://purl.org/dc/elements/1.1/"
   xmlns:cc="http://creativecommons.org/ns#"
   xmlns:rdf="http://www.w3.org/1999/02/22-rdf-syntax-ns#"
   xmlns:svg="http://www.w3.org/2000/svg"
   xmlns="http://www.w3.org/2000/svg"
   xmlns:sodipodi="http://sodipodi.sourceforge.net/DTD/sodipodi-0.dtd"
   xmlns:inkscape="http://www.inkscape.org/namespaces/inkscape"
   width="3.7041619mm"
   height="3.7032599mm"
   viewBox="0 0 3.7041619 3.7032599"
   version="1.1"
   id="svg8"
   inkscape:version="0.92.4 (5da689c313, 2019-01-14)"
   sodipodi:docname="instagram_.svg">
  <defs
     id="defs2" />
  <sodipodi:namedview
     id="base"
     pagecolor="#ffffff"
     bordercolor="#666666"
     borderopacity="1.0"
     inkscape:pageopacity="0.0"
     inkscape:pageshadow="2"
     inkscape:zoom="15.839192"
     inkscape:cx="13.772122"
     inkscape:cy="1.8416166"
     inkscape:document-units="mm"
     inkscape:current-layer="layer1"
     showgrid="false"
     fit-margin-top="0"
     fit-margin-left="0"
     fit-margin-right="0"
     fit-margin-bottom="0"
     inkscape:window-width="1920"
     inkscape:window-height="1017"
     inkscape:window-x="1352"
     inkscape:window-y="-8"
     inkscape:window-maximized="1" />
  <metadata
     id="metadata5">
    <rdf:RDF>
      <cc:Work
         rdf:about="">
        <dc:format>image/svg+xml</dc:format>
        <dc:type
           rdf:resource="http://purl.org/dc/dcmitype/StillImage" />
        <dc:title></dc:title>
      </cc:Work>
    </rdf:RDF>
  </metadata>
  <g
     inkscape:label="Capa 1"
     inkscape:groupmode="layer"
     id="layer1"
     transform="translate(-11.529511,-146.31736)">
    <path
       id="path837"
       d="m 13.382006,147.21951 c -0.525566,0 -0.94949,0.42392 -0.94949,0.94948 0,0.52557 0.423924,0.94949 0.94949,0.94949 0.525566,0 0.949489,-0.42392 0.949489,-0.94949 0,-0.52556 -0.423923,-0.94948 -0.949489,-0.94948 z m 0,1.56678 c -0.339635,0 -0.617292,-0.27683 -0.617292,-0.6173 0,-0.34046 0.276831,-0.61729 0.617292,-0.61729 0.340461,0 0.617292,0.27683 0.617292,0.61729 0,0.34047 -0.277658,0.6173 -0.617292,0.6173 z m 1.209793,-1.60562 c 0,0.12312 -0.09916,0.22146 -0.221465,0.22146 -0.123127,0 -0.221465,-0.0992 -0.221465,-0.22146 0,-0.12231 0.09916,-0.22147 0.221465,-0.22147 0.122302,0 0.221465,0.0992 0.221465,0.22147 z m 0.628862,0.22477 c -0.01405,-0.29667 -0.08181,-0.55945 -0.299143,-0.77596 -0.216507,-0.2165 -0.47929,-0.28427 -0.775954,-0.29914 -0.305754,-0.0173 -1.222189,-0.0173 -1.527943,0 -0.295837,0.014 -0.55862,0.0818 -0.775954,0.29832 -0.217333,0.2165 -0.284268,0.47929 -0.299143,0.77595 -0.01735,0.30575 -0.01735,1.22219 0,1.52794 0.01405,0.29667 0.08181,0.55945 0.299143,0.77596 0.217334,0.2165 0.47929,0.28427 0.775954,0.29914 0.305754,0.0173 1.222189,0.0173 1.527943,0 0.296664,-0.014 0.559447,-0.0818 0.775954,-0.29914 0.216506,-0.21651 0.284268,-0.47929 0.299143,-0.77596 0.01735,-0.30575 0.01735,-1.22136 0,-1.52711 z m -0.395001,1.85518 c -0.06446,0.16197 -0.189237,0.28675 -0.35203,0.35203 -0.243777,0.0967 -0.82223,0.0744 -1.091624,0.0744 -0.269394,0 -0.848674,0.0215 -1.091624,-0.0744 -0.161967,-0.0645 -0.286748,-0.18924 -0.35203,-0.35203 -0.09668,-0.24378 -0.07437,-0.82223 -0.07437,-1.09163 0,-0.26939 -0.02149,-0.84867 0.07437,-1.09162 0.06446,-0.16197 0.189237,-0.28675 0.35203,-0.35203 0.243777,-0.0967 0.82223,-0.0744 1.091624,-0.0744 0.269394,0 0.848673,-0.0215 1.091624,0.0744 0.161967,0.0645 0.286747,0.18924 0.35203,0.35203 0.09668,0.24378 0.07437,0.82223 0.07437,1.09162 0,0.2694 0.02231,0.84868 -0.07437,1.09163 z"
       inkscape:connector-curvature="0"
       style="stroke-width:0.00826362;fill:#ffffff;fill-opacity:1" />
  </g>
</svg>
