<?xml version="1.0" encoding="UTF-8" standalone="no"?>
<!-- Created with Inkscape (http://www.inkscape.org/) -->

<svg
   xmlns:dc="http://purl.org/dc/elements/1.1/"
   xmlns:cc="http://creativecommons.org/ns#"
   xmlns:rdf="http://www.w3.org/1999/02/22-rdf-syntax-ns#"
   xmlns:svg="http://www.w3.org/2000/svg"
   xmlns="http://www.w3.org/2000/svg"
   xmlns:sodipodi="http://sodipodi.sourceforge.net/DTD/sodipodi-0.dtd"
   xmlns:inkscape="http://www.inkscape.org/namespaces/inkscape"
   width="3.7041681mm"
   height="3.70421mm"
   viewBox="0 0 3.7041681 3.70421"
   version="1.1"
   id="svg8"
   inkscape:version="0.92.4 (5da689c313, 2019-01-14)"
   sodipodi:docname="twitter_.svg">
  <defs
     id="defs2" />
  <sodipodi:namedview
     id="base"
     pagecolor="#ffffff"
     bordercolor="#666666"
     borderopacity="1.0"
     inkscape:pageopacity="0.0"
     inkscape:pageshadow="2"
     inkscape:zoom="22.4"
     inkscape:cx="12.27691"
     inkscape:cy="6.1610712"
     inkscape:document-units="mm"
     inkscape:current-layer="layer1"
     showgrid="false"
     fit-margin-top="0"
     fit-margin-left="0"
     fit-margin-right="0"
     fit-margin-bottom="0"
     inkscape:window-width="1920"
     inkscape:window-height="1017"
     inkscape:window-x="1352"
     inkscape:window-y="-8"
     inkscape:window-maximized="1" />
  <metadata
     id="metadata5">
    <rdf:RDF>
      <cc:Work
         rdf:about="">
        <dc:format>image/svg+xml</dc:format>
        <dc:type
           rdf:resource="http://purl.org/dc/dcmitype/StillImage" />
        <dc:title></dc:title>
      </cc:Work>
    </rdf:RDF>
  </metadata>
  <g
     inkscape:label="Capa 1"
     inkscape:groupmode="layer"
     id="layer1"
     transform="translate(-11.808508,-145.63149)">
    <path
       id="path826"
       d="m 15.131875,146.55466 c 0.0024,0.0405 0.0024,0.081 0.0024,0.12153 0,1.2357 -0.763864,2.65951 -2.159985,2.65951 -0.430119,0 -0.829678,-0.15338 -1.165782,-0.41961 0.06111,0.009 0.119865,0.0111 0.183328,0.0111 0.3549,0 0.681606,-0.14759 0.942497,-0.39936 -0.333752,-0.009 -0.613447,-0.27782 -0.709814,-0.64824 0.04701,0.009 0.09402,0.0144 0.143378,0.0144 0.06816,0 0.136324,-0.0111 0.199779,-0.0318 -0.347852,-0.0868 -0.608751,-0.46304 -0.608751,-0.91738 v -0.0111 c 0.101062,0.0694 0.218589,0.11291 0.343151,0.1187 -0.204484,-0.16786 -0.338448,-0.45435 -0.338448,-0.77847 0,-0.17363 0.0376,-0.3328 0.103413,-0.47171 0.37371,0.56721 0.935449,0.93762 1.565341,0.97814 -0.01175,-0.0694 -0.0188,-0.14179 -0.0188,-0.21414 0,-0.51512 0.338455,-0.93474 0.759168,-0.93474 0.218583,0 0.416011,0.11291 0.554687,0.29519 0.171571,-0.0405 0.336096,-0.1187 0.481825,-0.22573 -0.05642,0.21705 -0.176281,0.39937 -0.333752,0.51511 0.152776,-0.0202 0.300849,-0.0724 0.437166,-0.14469 -0.103399,0.18521 -0.232677,0.35015 -0.38075,0.48329 z"
       inkscape:connector-curvature="0"
       style="fill:#ffffff;fill-opacity:1;stroke-width:0.00802782" />
  </g>
</svg>
